<svg width="20" height="20" viewBox="0 0 20 20" fill="none" xmlns="http://www.w3.org/2000/svg">
<path d="M9.99951 3.50211C9.61934 3.50158 9.23969 3.53024 8.86391 3.58785L8.64595 3.62126C8.58368 3.6058 8.52482 3.5788 8.47245 3.54165C8.41741 3.5026 8.3706 3.4531 8.33469 3.39597C8.29879 3.33883 8.27449 3.27519 8.26318 3.20867C8.25187 3.14214 8.25377 3.07404 8.26878 3.00825L7.78131 2.89704L8.26878 3.00825C8.28379 2.94246 8.31161 2.88028 8.35065 2.82524C8.3897 2.7702 8.4392 2.72339 8.49633 2.68749L8.2728 2.33181L8.49633 2.68749C8.55347 2.65158 8.61711 2.62728 8.68364 2.61597L8.68364 2.61598L8.68741 2.61531C9.11953 2.53844 9.55773 2.50088 9.99663 2.5031H9.99915C13.8433 2.5031 17.491 5.23742 19.4549 9.79684C19.4817 9.85917 19.4955 9.9263 19.4955 9.99415C19.4955 10.062 19.4817 10.1291 19.4549 10.1915L19.4541 10.1934C19.1256 10.9663 18.734 11.7109 18.283 12.4194L18.2788 12.426L18.2748 12.4327C18.2192 12.5265 18.1344 12.5995 18.0334 12.6405C17.9325 12.6816 17.8208 12.6885 17.7155 12.6602C17.6103 12.6319 17.5171 12.57 17.4504 12.4838C17.3838 12.3979 17.347 12.2925 17.3457 12.1838C17.3451 12.0866 17.3729 11.9913 17.4257 11.9096L17.4257 11.9097L17.4284 11.9054C17.7725 11.3606 18.0828 10.7952 18.3575 10.2123L18.4577 9.99967L18.3579 9.78684C16.5665 5.96728 13.4337 3.50229 9.99951 3.50211ZM9.99951 3.50211C9.99939 3.50211 9.99927 3.50211 9.99915 3.50211V4.00211L9.99987 3.50211C9.99975 3.50211 9.99963 3.50211 9.99951 3.50211ZM3.73917 5.16194L4.10692 4.80795L3.7454 4.44759L0.6475 1.35969C0.647419 1.35961 0.647338 1.35953 0.647257 1.35945C0.552966 1.26503 0.5 1.13704 0.5 1.0036C0.5 0.870034 0.553057 0.741942 0.6475 0.6475C0.694263 0.600736 0.749779 0.563642 0.810878 0.538334C0.871977 0.513026 0.937462 0.5 1.0036 0.5C1.06973 0.5 1.13521 0.513026 1.19631 0.538334C1.25741 0.563642 1.31293 0.600737 1.35969 0.647499L19.3508 18.6386L19.3522 18.6401C19.3991 18.6865 19.4362 18.7417 19.4616 18.8026C19.4869 18.8635 19.5 18.9288 19.5 18.9947C19.5 19.0606 19.4869 19.1259 19.4616 19.1868C19.4362 19.2477 19.3991 19.3029 19.3522 19.3494L19.3494 19.3522C19.3029 19.3991 19.2477 19.4362 19.1868 19.4616C19.1259 19.4869 19.0606 19.5 18.9947 19.5C18.9288 19.5 18.8635 19.4869 18.8026 19.4616C18.7417 19.4362 18.6865 19.3991 18.6401 19.3522L18.6391 19.3513L15.4007 16.1029L15.1118 15.8131L14.7705 16.0391C13.3544 16.9772 11.696 17.4831 9.99736 17.4952C6.15374 17.4943 2.5068 14.7601 0.543273 10.2012L0.542307 10.1989C0.514803 10.1359 0.500606 10.0679 0.500606 9.99915C0.500606 9.93039 0.514803 9.86237 0.542307 9.79935L0.542324 9.79935L0.544004 9.79541C1.28715 8.05206 2.37381 6.47623 3.73917 5.16194ZM7.82345 8.52565L7.58947 9.34158C7.52791 9.55626 7.49782 9.77874 7.50014 10.002C7.5009 10.6638 7.76411 11.2982 8.23208 11.7662C8.70006 12.2342 9.33455 12.4974 9.9963 12.4982C10.2196 12.5005 10.442 12.4704 10.6567 12.4088L11.4727 12.1748L10.8724 11.5746L8.42365 9.12585L7.82345 8.52565ZM9.99915 16.4962V16.4962L10.0048 16.4961C11.3549 16.4808 12.6774 16.1124 13.841 15.4276L14.4014 15.0978L13.9387 14.6409L12.3495 13.0717L12.0845 12.81L11.7579 12.989C11.0943 13.3525 10.3308 13.4912 9.58173 13.384C8.83271 13.2769 8.13862 12.9297 7.60359 12.3947C7.06855 11.8597 6.72143 11.1656 6.61429 10.4166C6.50714 9.66754 6.64576 8.90396 7.00934 8.24039L7.18841 7.91357L6.92638 7.64857L5.15725 5.85946L4.81322 5.51154L4.45793 5.84796C3.27455 6.96853 2.32009 8.3083 1.6476 9.79283L1.55277 10.0022L1.6499 10.2105C3.4315 14.0311 6.56485 16.4962 9.99915 16.4962Z" fill="black" stroke="black"/>
</svg>
